<?xml version="1.0" standalone="no"?>
<!DOCTYPE svg PUBLIC "-//W3C//DTD SVG 20010904//EN"
 "http://www.w3.org/TR/2001/REC-SVG-20010904/DTD/svg10.dtd">
<svg version="1.0" xmlns="http://www.w3.org/2000/svg"
 width="700.000000pt" height="700.000000pt" viewBox="0 0 700.000000 700.000000"
 preserveAspectRatio="xMidYMid meet">
<metadata>
Created by potrace 1.11, written by Peter Selinger 2001-2013
</metadata>
<g transform="translate(0.000000,700.000000) scale(0.100000,-0.100000)"
fill="#000000" stroke="none">
<path d="M3542 6985 c-108 -33 -202 -140 -218 -249 -2 -17 -5 -490 -5 -1051 0
-641 -4 -1032 -10 -1051 -20 -64 -93 -93 -139 -56 l-25 20 -1 859 c-2 930 0
896 -56 976 -158 228 -506 163 -573 -108 -4 -16 -6 -341 -6 -722 2 -577 4
-700 17 -742 10 -34 50 -96 132 -204 64 -86 184 -244 267 -353 254 -336 260
-340 490 -368 79 -10 180 -28 280 -50 56 -13 268 -83 320 -106 11 -5 40 -16
65 -24 25 -8 77 -26 115 -41 39 -14 99 -36 135 -49 202 -73 238 -89 263 -111
113 -105 54 -276 -100 -290 -19 -2 -80 10 -136 26 -137 39 -137 39 -179 46
-23 3 -38 2 -38 -5 0 -11 52 -83 166 -229 41 -54 86 -111 99 -128 12 -16 65
-84 116 -150 51 -66 122 -158 158 -205 36 -47 70 -90 76 -96 31 -32 84 -123
88 -151 7 -43 -29 -112 -68 -134 -16 -10 -45 -18 -63 -18 -68 -2 -94 22 -254
231 -84 110 -158 205 -163 212 -6 6 -41 50 -79 99 -68 87 -82 97 -104 75 -27
-27 -9 -58 135 -238 125 -156 409 -533 419 -556 49 -115 -80 -229 -193 -171
-18 10 -136 153 -311 380 -155 201 -288 367 -294 370 -23 7 -45 -4 -56 -29
-10 -21 -4 -33 55 -111 37 -49 69 -90 72 -93 4 -3 35 -43 70 -90 36 -47 116
-151 178 -231 62 -81 120 -162 128 -182 39 -93 -46 -199 -147 -182 -50 9 -91
46 -188 175 -36 47 -121 158 -190 247 -69 89 -156 202 -195 252 -57 75 -74 91
-94 89 -13 -2 -30 -12 -37 -23 -19 -29 -33 -9 259 -384 65 -83 122 -163 127
-177 23 -60 4 -126 -49 -163 -27 -20 -56 -26 -110 -22 -27 1 -96 68 -161 156
-24 33 -50 66 -57 75 -7 8 -141 182 -298 385 -157 204 -293 379 -302 390 -32
38 -124 177 -147 223 -28 55 -71 190 -80 247 -3 22 -7 49 -10 60 -2 11 -7 45
-11 75 -9 67 -40 171 -67 225 -16 31 -223 318 -285 395 -7 8 -58 76 -113 150
-140 188 -148 196 -214 241 -140 94 -320 95 -446 3 -54 -39 -75 -63 -104 -118
-31 -60 -48 -121 -47 -180 2 -135 14 -163 200 -456 72 -113 143 -225 157 -250
38 -62 368 -583 409 -645 18 -27 91 -140 162 -251 72 -111 180 -266 240 -345
218 -285 358 -511 458 -744 23 -53 56 -158 71 -225 8 -36 17 -78 21 -95 4 -16
7 -228 7 -470 1 -242 5 -452 9 -466 5 -15 23 -37 40 -50 l32 -24 883 -3 c867
-2 883 -2 922 18 78 40 79 46 81 648 2 316 5 368 29 487 6 28 12 59 14 70 10
47 72 207 111 285 23 47 82 157 131 245 135 242 180 340 229 500 49 164 76
315 92 520 3 44 6 764 6 1600 l1 1520 -32 66 c-36 75 -91 130 -161 163 -64 29
-187 29 -252 -1 -71 -32 -128 -89 -162 -163 l-30 -65 -2 -725 c-1 -399 -3
-733 -4 -743 0 -10 -14 -32 -30 -48 -23 -23 -38 -29 -71 -29 -33 0 -48 6 -71
29 -16 16 -30 38 -30 48 -1 10 -2 484 -3 1053 -2 825 -5 1043 -15 1075 -49
147 -164 232 -311 229 -102 -2 -199 -53 -255 -133 -58 -85 -57 -52 -57 -1066
0 -1011 1 -979 -57 -1009 -52 -28 -106 -15 -138 33 -16 24 -17 98 -18 1076 -1
854 -4 1057 -15 1090 -29 88 -96 161 -179 198 -56 24 -159 30 -219 12z"/>
</g>
</svg>
